<?xml version="1.0" encoding="utf-8"?>
<!-- Generator: Adobe Illustrator 25.3.1, SVG Export Plug-In . SVG Version: 6.00 Build 0)  -->
<svg version="1.1" xmlns="http://www.w3.org/2000/svg" xmlns:xlink="http://www.w3.org/1999/xlink" x="0px" y="0px" width="800px"
	 height="450px" viewBox="0 0 800 450" style="enable-background:new 0 0 800 450;" xml:space="preserve">
<style type="text/css">
	.st0{fill:#EFEFEF;}
	.st1{fill:#561E6E;}
	.st2{fill:#231F20;}
</style>
<g id="Layer_2">
	<rect class="st0" width="800" height="450"/>
</g>
<g id="Layer_1">
	<g>
		<rect x="114.6" y="313.9" class="st1" width="180.2" height="7.5"/>
		<rect x="134.8" y="303.2" class="st1" width="139.7" height="7.6"/>
		<rect x="121.7" y="252.8" class="st1" width="9.6" height="58"/>
		<rect x="135.2" y="252.8" class="st1" width="18.2" height="47.3"/>
		<rect x="157.2" y="252.8" class="st1" width="9.6" height="36.8"/>
		<polygon class="st1" points="131.2,222.3 121.7,226.5 121.7,249.3 131.2,249.3 		"/>
		<polygon class="st1" points="166.8,226.5 157.2,222.3 157.2,249.3 166.8,249.3 		"/>
		<polygon class="st1" points="131.2,176.6 121.7,181.9 121.7,222.6 131.2,218.7 		"/>
		<polygon class="st1" points="166.8,181.9 157.2,176.6 157.2,218.7 166.8,222.7 		"/>
		<rect x="135.2" y="176.7" class="st1" width="18.2" height="42.2"/>
		<rect x="135.2" y="222.3" class="st1" width="18.2" height="27"/>
		<polygon class="st1" points="131.2,146.2 121.7,152.3 121.7,178.9 131.2,173.2 		"/>
		<polygon class="st1" points="166.8,152.3 157.2,146.2 157.2,173.2 166.8,178.9 		"/>
		<rect x="135.2" y="146.2" class="st1" width="18.2" height="27"/>
		<polygon class="st1" points="131.2,128.6 121.7,137.1 121.7,148.3 131.2,142.7 		"/>
		<polygon class="st1" points="166.8,137.1 157.2,128.6 157.2,142.7 166.8,148.3 		"/>
		<polygon class="st1" points="153.4,128.6 146.9,128.6 146.9,135.2 141.6,135.2 141.6,128.6 135.2,128.6 135.2,142.8 153.4,142.8 
					"/>
		<rect x="278.1" y="252.8" class="st1" width="9.6" height="58"/>
		<rect x="256" y="252.8" class="st1" width="18.2" height="47.3"/>
		<rect x="242.6" y="252.8" class="st1" width="9.6" height="36.8"/>
		<polygon class="st1" points="287.7,226.5 278.1,222.3 278.1,249.3 287.7,249.3 		"/>
		<polygon class="st1" points="252.2,222.3 242.6,226.5 242.6,249.3 252.2,249.3 		"/>
		<polygon class="st1" points="287.7,181.9 278.1,176.6 278.1,218.7 287.7,222.6 		"/>
		<g>
			<polygon class="st1" points="252.2,176.6 242.6,181.9 242.6,222.7 252.2,218.7 			"/>
		</g>
		<rect x="256" y="176.7" class="st1" width="18.2" height="42.2"/>
		<rect x="256" y="222.3" class="st1" width="18.2" height="27"/>
		<polygon class="st1" points="287.7,152.3 278.1,146.2 278.1,173.2 287.7,178.9 		"/>
		<polygon class="st1" points="252.2,146.2 242.6,152.3 242.6,178.9 252.2,173.2 		"/>
		<rect x="256" y="146.2" class="st1" width="18.2" height="27"/>
		<polygon class="st1" points="287.7,137.1 278.1,128.6 278.1,142.7 287.7,148.3 		"/>
		<polygon class="st1" points="252.2,128.6 242.6,137.1 242.6,148.3 252.2,142.7 		"/>
		<polygon class="st1" points="274.2,128.6 267.8,128.6 267.8,135.2 262.5,135.2 262.5,128.6 256,128.6 256,142.8 274.2,142.8 		"/>
		<rect x="157" y="292.9" class="st1" width="95.4" height="7.2"/>
		<path class="st1" d="M183,267.9v21.5H203v-32h-9.5C187.7,257.4,183,262.1,183,267.9z"/>
		<path class="st1" d="M206.3,257.4v32h20v-21.5c0-5.8-4.8-10.6-10.7-10.5c0,0,0,0,0,0H206.3z"/>
		<path class="st1" d="M239.4,289.5V181.6h-69.3v107.9h9v-36.8h51.3v36.8H239.4z M175.7,246v-57.5h58.1V246L175.7,246z"/>
		<path class="st1" d="M183,220.4c-2.2,0-3.9,1.2-3.9,2.7v19.5h7.9v-19.5C187,221.6,185.2,220.4,183,220.4z"/>
		<path class="st1" d="M193.8,220.4c-2.2,0-4,1.2-4,2.7v19.5h7.9v-19.5C197.8,221.6,196,220.4,193.8,220.4z"/>
		<path class="st1" d="M204.7,220.4c-2.2,0-4,1.2-4,2.7v19.5h7.9v-19.5C208.7,221.6,206.9,220.4,204.7,220.4z"/>
		<path class="st1" d="M215.5,220.4c-2.2,0-4,1.2-4,2.7v19.5h7.9v-19.5C219.5,221.6,217.7,220.4,215.5,220.4z"/>
		<path class="st1" d="M226.4,220.4c-2.2,0-3.9,1.2-3.9,2.7v19.5h7.9v-19.5C230.4,221.6,228.6,220.4,226.4,220.4z"/>
		<path class="st1" d="M186.9,194.6c0-1.6-1.8-2.7-4-2.7c-2.2,0-3.9,1.2-3.9,2.7v19.5h7.9L186.9,194.6z"/>
		<path class="st1" d="M197.8,194.6c0-1.6-1.8-2.7-4-2.7c-2.2,0-4,1.2-4,2.7v19.5h7.9L197.8,194.6z"/>
		<path class="st1" d="M204.7,191.9c-2.2,0-4,1.2-4,2.7v19.5h7.9v-19.5C208.7,193.1,206.9,191.9,204.7,191.9z"/>
		<path class="st1" d="M215.6,191.9c-2.2,0-4,1.2-4,2.7v19.5h7.9v-19.5C219.5,193.1,217.7,191.9,215.6,191.9z"/>
		<path class="st1" d="M226.4,191.9c-2.2,0-4,1.2-4,2.7v19.5h7.9v-19.5C230.4,193.1,228.6,191.9,226.4,191.9z"/>
		<path class="st1" d="M239.2,162.4h-14.1v-6.7h-8.5c-1-7.9-5.6-13.9-11.1-13.9c-5.5,0-10,6-11.1,13.9h-8.5v6.7h-16v15.8h69.1V162.4
			z M210.3,172.1h-8.5l-2.4-10.8h13.3L210.3,172.1z"/>
		<path class="st2" d="M314.5,194c-0.5,0.1-1,0.2-1.3,0.9l-0.4,1.2c-0.3,1,0.3,1.2,0.9,1.2h17.2c0.5,0.1,0.9-0.2,1.2-0.6l0.5-1.3
			c0.3-0.6,0.1-1.1-0.7-1.2c-3.3-0.7-4.3-1.2-4.3-4.1v-16.1h0.1l13.3,17.6c3.2,3.7,4.5,5.7,7.3,5.7h8.4v-1.6c0-0.7-2.1-1.8-3.2-2.8
			c-2.6-2.5-12.1-14.3-18.5-22.4l10.6-12.8c4.1-5,7.5-4,7.5-6v-2h-7.5l-18,21.9h-0.1V157c-0.1-2,1.4-3.8,3.5-4
			c0.5-0.1,1-0.2,1.3-0.9l0.4-1.2c0.3-1-0.3-1.2-0.9-1.2h-17.3c-0.5-0.1-0.9,0.2-1.1,0.6l-0.6,1.4c-0.3,0.5-0.1,1.1,0.8,1.2
			c3.3,0.7,4.3,1.2,4.3,4.1V190C318,192,316.5,193.8,314.5,194z"/>
		<path class="st2" d="M359.9,197.3h10.6c0.9,0,1.1-0.8,1.3-1.2l0.4-0.7c0.9-1.6-4.5-1-3.2-4.6l3-7.7h17l2.6,6.8
			c1.4,4.1-2.3,3.5-2.9,4.9l-0.6,1.4c-0.3,0.9,0.3,1.1,0.9,1.1h15.9c0.8,0,1.3,0,1.7-0.7l0.7-1.5c0.2-0.5-0.2-0.9-0.9-1.1
			c-3.4-0.9-3.8-1.1-5.1-4.4c-4.4-10.4-10.1-24.2-14.8-37.8c-0.2-1-0.7-2-1.7-2h-11.7c-0.8,0-1.4,0.1-1.6,0.8l-0.3,1.1
			c-1,1.7,2.2,1.2,3.8,2.7c1.7,1.2,2.2,3.4,1.2,5.2l-11.7,30c-1.4,3.4-1.9,3.8-4.7,4.5c-1,0.3-1.6,0.5-1.8,1L358,196
			C357.2,197.5,358.6,197.3,359.9,197.3z M380.6,160.7l7,18.4h-14.1L380.6,160.7z"/>
		<path class="st2" d="M409.7,153.2c2.4,0.8,4.6,2.1,6.3,3.9V190c0.1,2-1.4,3.8-3.5,4c-0.5,0.1-1,0.2-1.3,0.9l-0.4,1.2
			c-0.3,1,0.3,1.2,0.9,1.2h12.4c0.5,0.1,0.9-0.2,1.2-0.6l0.5-1.3c0.3-0.6,0.1-1.1-0.7-1.2c-3.3-0.7-4.3-1.2-4.3-4.1v-28.6h0.1
			l25.8,32.8c2.1,2.6,2.5,3,2.8,3h4.7c1.2,0,1.5-0.9,1.5-2.2v-37.9c-0.1-2,1.4-3.8,3.5-4c0.5-0.1,1-0.2,1.3-1l0.4-1.1
			c0.3-1-0.3-1.2-0.9-1.2h-12.3c-0.5-0.1-0.9,0.2-1.2,0.5l-0.6,1.4c-0.3,0.5-0.1,1.1,0.8,1.2c3.3,0.7,4.3,1.2,4.3,4.1v27.2h-0.1
			l-25.2-31.6c-1.2-1.4-2.1-2.6-3.8-2.8h-11.7c-0.5,0-0.9,0.2-1.2,0.5l-0.6,1.4C408.2,152.3,408.4,152.8,409.7,153.2z"/>
		<path class="st2" d="M464.5,194c0,1.8,0,1.8,3.5,2.9c3.1,0.9,6.4,1.3,9.6,1.2c9.4,0,18-4.5,17.7-14.4c-0.2-6.3-4.7-10-12.1-15
			c-5.6-3.7-9.1-6.2-8.3-11.1c0.7-3.1,3.5-5.3,6.7-5.2c2.6-0.2,5.1,1.3,6.2,3.7c0.9,1.8,2.2,4.6,2.7,4.1l2-1.4
			c0.2-0.3,0.4-0.5,0.4-0.7v-5c0.1-1.2-0.9-1.8-3-2.6c-2.6-1-5.4-1.5-8.2-1.4c-10.8,0-16.4,5.8-16.4,11.9c0,7,5.4,9.4,9.4,12.2
			c5.3,3.7,11.4,7.1,11.1,13c-0.2,4.6-4.1,8.2-8.7,8c-0.1,0-0.1,0-0.2,0c-2.9,0.1-5.6-1.5-6.9-4.1c-1.6-2.8-2-5.7-2.7-5.5l-2.2,0.8
			c-0.7,0.3-0.4,1.3-0.4,2L464.5,194z"/>
		<path class="st2" d="M499.2,197.3h10.5c0.9,0,1.2-0.8,1.4-1.2l0.4-0.7c0.9-1.6-4.5-1-3.2-4.6l3-7.7h17l2.6,6.9
			c1.3,4.1-2.3,3.5-2.9,4.9l-0.6,1.4c-0.3,0.9,0.3,1.1,1,1.1h15.9c0.8,0,1.4,0,1.7-0.7l0.7-1.5c0.2-0.5-0.2-0.9-0.9-1.1
			c-3.4-0.9-3.8-1.1-5.1-4.4c-4.4-10.4-10.1-24.2-14.8-37.8c-0.2-1-0.7-2-1.7-2h-11.7c-0.7,0-1.4,0.1-1.6,0.8l-0.3,1.1
			c-0.9,1.7,2.2,1.2,3.8,2.7c1.7,1.2,2.2,3.4,1.2,5.2l-11.7,30c-1.4,3.4-1.9,3.8-4.7,4.5c-1,0.3-1.6,0.5-1.8,1l-0.3,0.9
			C496.5,197.5,497.9,197.3,499.2,197.3z M519.9,160.7l7,18.4h-14.1L519.9,160.7z"/>
		<path class="st2" d="M549.8,194c0,1.8,0,1.8,3.5,2.9c3.1,0.9,6.4,1.3,9.6,1.2c9.4,0,18-4.5,17.7-14.4c-0.2-6.3-4.7-10-12.1-15
			c-5.6-3.7-9.1-6.2-8.3-11.1c0.7-3.1,3.5-5.3,6.6-5.2c2.6-0.2,5.1,1.3,6.2,3.7c0.9,1.8,2.2,4.6,2.7,4.1l2-1.4
			c0.2-0.3,0.4-0.5,0.4-0.7v-5c0.1-1.2-0.9-1.8-3-2.6c-2.6-1-5.4-1.5-8.2-1.4c-10.8,0-16.4,5.8-16.4,11.9c0,7,5.4,9.4,9.4,12.2
			c5.3,3.7,11.4,7.1,11.1,13c-0.2,4.6-4.1,8.2-8.7,8c-0.1,0-0.1,0-0.2,0c-2.9,0.1-5.6-1.5-6.9-4.1c-1.6-2.8-2-5.7-2.7-5.5l-2.2,0.8
			c-0.7,0.3-0.4,1.3-0.4,2V194z"/>
		<path class="st2" d="M310.8,217.9c1.8,0.9,2.5,1.2,3.5,4.6l10.9,37c0.3,1.2,1.5,2.7,2.4,2.7h4.5c1.2,0,1.7-1.2,2.2-2.7l10.1-30.4
			h0.1l9.4,30.4c0.3,1.2,1.6,2.7,2.4,2.7h4.7c1.2,0,1.8-1.2,2.2-2.7l11.2-37c0.9-2.9,1.6-3.7,3.9-4.4c0.8-0.3,1.6-0.4,1.7-0.9
			l0.5-1.6c0.3-0.9-0.7-0.8-1.5-0.8h-10.9c-0.6,0-0.7,0.3-1,0.8l-0.6,0.9c-0.4,0.8,0.7,1,1.9,1.6c1.2,0.6,2.1,1.5,1.3,4l-8.5,28.4
			h-0.1l-10.6-33c-0.4-1.3-0.6-2.7-1.2-2.7h-4.2c-0.6,0-0.9,1.2-1.4,2.7l-11.3,33.2l0,0l-8.6-28.6c-1.2-3.9,2-3.3,2.6-4.9l0.5-1.6
			c0.3-0.7-0.3-0.9-0.9-0.9h-14.8c-0.6,0-0.9,0.1-1.1,0.6l-0.5,1.4C309.4,217.3,310.1,217.5,310.8,217.9z"/>
		<path class="st2" d="M394.2,262.2h20.9c1.8,0,3.2-0.6,3.2-1.7v-6.6c0-0.3-0.1-0.5-0.4-0.6l-1.7-0.5c-0.9-0.3-1.9,5.4-8.5,5.4h-5.6
			c-3.7,0-4.9-1.3-4.9-6.3v-13.2h13.1c0.8,0.1,1.7-0.2,2.2-0.9l1.2-2.1c0.4-0.6,0-1-0.9-1h-15.7v-15.7h10c4.6,0,5.6,5.5,6.6,4.7
			l1.2-1c0.2-0.1,0.3-0.4,0.3-0.6v-5.4c0.1-0.9-0.7-1.7-2-1.7h-29.6c-0.5,0-1,0.3-1.2,0.8l-0.6,1.3c-0.3,0.7,0.3,0.9,1.3,1.2
			c2.9,0.5,4.3,1.6,4.3,4.5v35C387.6,262.2,389.1,262.2,394.2,262.2z"/>
		<path class="st2" d="M427.4,261.7c3.1,0.9,6.4,1.3,9.6,1.2c9.4,0,18-4.5,17.7-14.4c-0.2-6.3-4.7-10-12.1-15
			c-5.6-3.7-9.1-6.2-8.3-11.1c0.7-3.1,3.5-5.3,6.6-5.2c2.6-0.2,5.1,1.3,6.2,3.7c0.9,1.8,2.2,4.6,2.7,4.1l2-1.4
			c0.2-0.3,0.4-0.5,0.4-0.8v-5c0.1-1.2-1-1.8-3-2.6c-2.6-1-5.4-1.5-8.2-1.4c-10.8,0-16.4,5.8-16.4,11.9c0,7,5.4,9.4,9.4,12.2
			c5.3,3.7,11.4,7.1,11.1,13c-0.2,4.7-3.9,8-9,8c-2.9,0.1-5.6-1.5-6.9-4.1c-1.6-2.8-2-5.7-2.7-5.5l-2.2,0.8c-0.7,0.3-0.4,1.3-0.4,2
			v6.6C423.8,260.6,423.8,260.7,427.4,261.7z"/>
		<path class="st2" d="M459.6,216.6c-0.3,0.5-0.1,1.1,0.7,1.2c3.3,0.7,4.3,1.2,4.3,4.1v32.9c0.1,2-1.4,3.8-3.5,4
			c-0.6,0.1-1.1,0.4-1.3,0.9l-0.4,1.2c-0.3,1,0.3,1.2,0.9,1.2h31.7c1.8,0,3.2-0.6,3.2-1.7v-6.6c0-0.3-0.1-0.5-0.4-0.6l-1.7-0.5
			c-1-0.3-1.9,6-8.5,6h-5.5c-3.7,0-4.9-1.3-4.9-7v-29.8c-0.1-2,1.4-3.8,3.5-4c0.6-0.1,1.1-0.4,1.3-0.9l0.4-1.2
			c0.3-1-0.3-1.2-0.9-1.2h-17.2c-0.5-0.1-0.9,0.2-1.2,0.6L459.6,216.6z"/>
		<path class="st2" d="M497.7,218c2.9,0.5,4.3,1.6,4.3,4.5v35c0,4.7,1.5,4.7,6.6,4.7h20.9c1.8,0,3.2-0.6,3.2-1.7v-6.6
			c0-0.3-0.1-0.5-0.4-0.6l-1.7-0.5c-0.9-0.3-1.9,5.4-8.5,5.4h-5.6c-3.7,0-4.9-1.3-4.9-6.3v-13.2h13.1c0.8,0.1,1.7-0.2,2.2-0.9
			l1.2-2.1c0.4-0.6,0-1-0.9-1h-15.7v-15.7h10c4.6,0,5.6,5.5,6.6,4.7l1.2-1c0.2-0.1,0.3-0.4,0.3-0.6v-5.4c0.1-0.9-0.7-1.7-2-1.7
			h-29.6c-0.5,0-1,0.3-1.2,0.8l-0.5,1.3C496.1,217.5,496.7,217.7,497.7,218z"/>
		<path class="st2" d="M560.5,240.4l10-18.1c1.6-3,2.8-3.7,4-4.1c0.5-0.3,1.8-0.6,2.1-1.3l0.3-1.2c0.2-0.7,0-0.9-0.7-0.9h-11.2
			c-0.3,0-0.6,0.2-0.7,0.5l-0.6,1.2c-0.4,0.8,0.6,1,1.8,1.8c1.2,0.7,2.1,1.6,1,3.6l-9.7,17.6l-8.3-17.2c-0.6-2,0-2.8,0.5-3.4
			c0.9-0.9,2-1.1,2.2-1.7l0.5-1.5c0.2-0.6-0.3-0.9-0.7-0.9h-15.3c-0.6,0-1,0.1-1.2,0.6l-0.6,1.4c-0.3,0.7,0.5,1,1.3,1.4
			c1.4,0.7,2.2,1,3.9,4.3l10.5,21.4v11.1c0.1,2-1.4,3.8-3.5,4c-0.5,0.1-1,0.2-1.3,0.9l-0.4,1.2c-0.3,1,0.3,1.2,0.9,1.2h17.2
			c0.5,0.1,0.9-0.2,1.2-0.6l0.6-1.4c0.3-0.5,0.1-1.1-0.7-1.2c-3.3-0.7-4.3-1.2-4.3-4.1V247C559,244.7,559.5,242.5,560.5,240.4z"/>
		<path class="st2" d="M588.1,219.3c1.7,1.2,2.2,3.4,1.2,5.2l-11.7,30c-1.4,3.4-1.9,3.8-4.7,4.5c-1,0.3-1.6,0.5-1.8,1l-0.3,0.9
			c-0.6,1.6,0.8,1.3,2.1,1.3h10.5c0.9,0,1.2-0.8,1.4-1.2l0.4-0.8c0.9-1.6-4.5-0.9-3.2-4.5l3-7.7h17l2.6,6.9c1.4,4.1-2.3,3.5-2.9,4.9
			l-0.7,1.3c-0.3,0.9,0.3,1.1,0.9,1.1h15.9c0.8,0,1.4-0.1,1.7-0.7l0.7-1.5c0.2-0.5-0.2-0.9-0.9-1.2c-3.4-0.9-3.8-1.1-5.1-4.4
			c-4.4-10.4-10.1-24.2-14.8-37.8c-0.2-1-0.7-2-1.7-2h-11.7c-0.7,0-1.4,0.1-1.6,0.8l-0.3,1.1C583.4,218.3,586.6,217.8,588.1,219.3z
			 M600.6,243.9h-14.1l7.1-18.4L600.6,243.9z"/>
		<path class="st2" d="M621.4,218.1c2.4,0.8,4.6,2.1,6.3,3.9v32.9c0.1,2-1.4,3.8-3.4,4c-0.5,0.1-1,0.2-1.3,0.9l-0.4,1.2
			c-0.3,1,0.3,1.2,0.9,1.2h12.3c0.5,0.1,0.9-0.2,1.2-0.6l0.5-1.4c0.3-0.5,0.1-1.1-0.7-1.2c-3.3-0.7-4.3-1.2-4.3-4.1v-28.6h0.1
			l25.8,32.8c2.1,2.6,2.5,3.1,2.8,3.1h4.7c1.2,0,1.5-0.9,1.5-2.2V222c-0.1-2,1.4-3.8,3.5-4c0.5-0.1,1-0.2,1.3-0.9l0.4-1.2
			c0.3-1-0.3-1.2-0.9-1.2h-12.3c-0.5-0.1-0.9,0.2-1.2,0.6l-0.5,1.3c-0.3,0.6-0.1,1.1,0.7,1.2c3.3,0.7,4.3,1.2,4.3,4.1v27.2h-0.1
			l-25.2-31.6c-1.2-1.4-2.1-2.6-3.8-2.8h-11.7c-0.5,0-0.9,0.2-1.2,0.6l-0.5,1.3C619.9,217.2,620,217.7,621.4,218.1z"/>
		<path class="st2" d="M333.8,306c0,4.2-1.2,5.3-5.8,5.3s-5.8-1.1-5.8-5.3v-13h-2.5v13.7c0,4.9,2.3,7,8.3,7s8.3-2,8.3-7v-13.7h-2.5
			V306z"/>
		<polygon class="st2" points="374.9,308 361.8,292.9 360.5,292.9 360.5,313.1 363,313.1 363,298 376.1,313.1 377.4,313.1 
			377.4,292.9 374.9,292.9 		"/>
		<rect x="402.1" y="292.8" class="st2" width="2.5" height="20.3"/>
		<polygon class="st2" points="436.6,309.1 428.9,292.9 426.1,292.9 435.9,313.1 437.4,313.1 447.2,292.9 444.4,292.9 		"/>
		<polygon class="st2" points="471.1,303.5 479.2,303.5 479.2,301.1 471.1,301.1 471.1,295.2 484.5,295.2 484.5,292.9 468.6,292.9 
			468.6,313.1 485.3,313.1 485.3,310.8 471.1,310.8 		"/>
		<path class="st2" d="M525.5,298.5c0-3.5-2.4-5.6-6.3-5.6h-11.5v20.1h2.5v-8.8h7.8l5.1,8.8h2.7l-5.1-8.9
			C523.4,303.8,525.5,301.4,525.5,298.5z M510.1,301.9v-6.6h9c2.4,0,3.7,1.3,3.7,3.3s-1.3,3.3-3.9,3.3H510.1z"/>
		<path class="st2" d="M559.5,301.1c-3.7-0.4-6.6-0.1-8.3-1.4c-0.6-0.4-1-1.1-1-1.8c0-1.7,2.1-3.2,5.2-3.2c3,0,5.9,1.1,8.1,3
			l1.5-2.1c-2.8-2.1-6.2-3.2-9.6-3.3c-4.7,0-7.8,2.5-7.8,5.6c0,1.8,1.2,3.5,2.9,4.1c2.1,1,4.9,1,8.3,1.3c3.2,0.3,4.7,1.8,4.7,3.6
			c0,2.4-2.4,4.2-6.3,4.2c-3.3-0.1-6.5-1.3-9-3.4l-1.5,2.2c3,2.4,6.7,3.6,10.5,3.6c5.7,0,8.9-3,8.9-6.5
			C566.2,304.1,563.8,301.6,559.5,301.1z"/>
		<rect x="589.7" y="292.8" class="st2" width="2.5" height="20.3"/>
		<polygon class="st2" points="612,295.2 620.5,295.2 620.5,313.1 623,313.1 623,295.2 631.5,295.2 631.5,292.9 612,292.9 		"/>
		<polygon class="st2" points="656.7,300.9 649.5,292.9 646.4,292.9 655.5,303 655.5,313.1 658,313.1 658,303 667.1,292.9 
			663.9,292.9 		"/>
		<rect x="309.7" y="274.9" class="st2" width="362.8" height="3.6"/>
	</g>
</g>
</svg>
